HIERARCHY
ROOT mixamorig:Hips
{
	OFFSET 0.000000 103.991501 0.000000
	CHANNELS 6 Xposition Yposition Zposition Xrotation Yrotation Zrotation
	JOINT mixamorig:Spine
	{
		OFFSET 0.000000 10.181602 0.131500
		CHANNELS 6 Xposition Yposition Zposition Xrotation Yrotation Zrotation
		JOINT mixamorig:Spine1
		{
			OFFSET 0.000000 10.083504 -1.000800
			CHANNELS 6 Xposition Yposition Zposition Xrotation Yrotation Zrotation
			JOINT mixamorig:Spine2
			{
				OFFSET 0.000000 9.100006 -1.373400
				CHANNELS 6 Xposition Yposition Zposition Xrotation Yrotation Zrotation
				JOINT mixamorig:Neck
				{
					OFFSET 0.000000 16.671707 -2.516200
					CHANNELS 6 Xposition Yposition Zposition Xrotation Yrotation Zrotation
					JOINT mixamorig:Head
					{
						OFFSET 0.000000 9.617905 1.685000
						CHANNELS 6 Xposition Yposition Zposition Xrotation Yrotation Zrotation
						JOINT mixamorig:HeadTop_End
						{
							OFFSET 0.000000 17.815201 2.585000
							CHANNELS 6 Xposition Yposition Zposition Xrotation Yrotation Zrotation
							End Site
							{
								OFFSET 0.000000 13.794495 0.000000
							}
						}
						JOINT mixamorig:LeftEye
						{
							OFFSET 3.067600 6.409500 9.283600
							CHANNELS 6 Xposition Yposition Zposition Xrotation Yrotation Zrotation
							End Site
							{
								OFFSET 0.000000 13.794495 0.000000
							}
						}
						JOINT mixamorig:RightEye
						{
							OFFSET -3.067600 6.409500 9.283500
							CHANNELS 6 Xposition Yposition Zposition Xrotation Yrotation Zrotation
							End Site
							{
								OFFSET 0.000000 13.794495 0.000000
							}
						}
					}
				}
				JOINT mixamorig:LeftShoulder
				{
					OFFSET 4.570400 10.945999 -2.628000
					CHANNELS 6 Xposition Yposition Zposition Xrotation Yrotation Zrotation
					JOINT mixamorig:LeftArm
					{
						OFFSET 10.592400 -0.524597 -2.232100
						CHANNELS 6 Xposition Yposition Zposition Xrotation Yrotation Zrotation
						JOINT mixamorig:LeftForeArm
						{
							OFFSET 27.841499 0.000000 0.000000
							CHANNELS 6 Xposition Yposition Zposition Xrotation Yrotation Zrotation
							JOINT mixamorig:LeftHand
							{
								OFFSET 28.328800 0.000000 0.000000
								CHANNELS 6 Xposition Yposition Zposition Xrotation Yrotation Zrotation
								JOINT mixamorig:LeftHandThumb1
								{
									OFFSET 2.466103 -1.576218 2.681689
									CHANNELS 6 Xposition Yposition Zposition Xrotation Yrotation Zrotation
									JOINT mixamorig:LeftHandThumb2
									{
										OFFSET 3.229782 -1.864716 1.864716
										CHANNELS 6 Xposition Yposition Zposition Xrotation Yrotation Zrotation
										JOINT mixamorig:LeftHandThumb3
										{
											OFFSET 2.652611 -1.531494 1.531488
											CHANNELS 6 Xposition Yposition Zposition Xrotation Yrotation Zrotation
											JOINT mixamorig:LeftHandThumb4
											{
												OFFSET 1.954605 -1.128494 1.128493
												CHANNELS 6 Xposition Yposition Zposition Xrotation Yrotation Zrotation
												End Site
												{
													OFFSET -0.000404 2.523392 0.000683
												}
											}
										}
									}
								}
								JOINT mixamorig:LeftHandIndex1
								{
									OFFSET 9.109299 -0.518112 2.259867
									CHANNELS 6 Xposition Yposition Zposition Xrotation Yrotation Zrotation
									JOINT mixamorig:LeftHandIndex2
									{
										OFFSET 3.676399 0.000000 0.000000
										CHANNELS 6 Xposition Yposition Zposition Xrotation Yrotation Zrotation
										JOINT mixamorig:LeftHandIndex3
										{
											OFFSET 2.883102 0.000000 0.000000
											CHANNELS 6 Xposition Yposition Zposition Xrotation Yrotation Zrotation
											JOINT mixamorig:LeftHandIndex4
											{
												OFFSET 2.392700 0.000000 0.000000
												CHANNELS 6 Xposition Yposition Zposition Xrotation Yrotation Zrotation
												End Site
												{
													OFFSET 0.000000 2.392700 0.001080
												}
											}
										}
									}
								}
								JOINT mixamorig:LeftHandMiddle1
								{
									OFFSET 9.533401 0.000000 0.000000
									CHANNELS 6 Xposition Yposition Zposition Xrotation Yrotation Zrotation
									JOINT mixamorig:LeftHandMiddle2
									{
										OFFSET 3.698196 0.000000 0.000000
										CHANNELS 6 Xposition Yposition Zposition Xrotation Yrotation Zrotation
										JOINT mixamorig:LeftHandMiddle3
										{
											OFFSET 2.950897 0.000000 0.000000
											CHANNELS 6 Xposition Yposition Zposition Xrotation Yrotation Zrotation
											JOINT mixamorig:LeftHandMiddle4
											{
												OFFSET 2.833900 0.000000 0.000000
												CHANNELS 6 Xposition Yposition Zposition Xrotation Yrotation Zrotation
												End Site
												{
													OFFSET 0.000000 2.833893 0.001278
												}
											}
										}
									}
								}
								JOINT mixamorig:LeftHandRing1
								{
									OFFSET 9.104500 -0.043060 -1.865119
									CHANNELS 6 Xposition Yposition Zposition Xrotation Yrotation Zrotation
									JOINT mixamorig:LeftHandRing2
									{
										OFFSET 3.153999 0.000000 0.000000
										CHANNELS 6 Xposition Yposition Zposition Xrotation Yrotation Zrotation
										JOINT mixamorig:LeftHandRing3
										{
											OFFSET 2.937698 0.000000 0.000000
											CHANNELS 6 Xposition Yposition Zposition Xrotation Yrotation Zrotation
											JOINT mixamorig:LeftHandRing4
											{
												OFFSET 2.647499 0.000000 0.000000
												CHANNELS 6 Xposition Yposition Zposition Xrotation Yrotation Zrotation
												End Site
												{
													OFFSET 0.000000 2.647507 0.001195
												}
											}
										}
									}
								}
								JOINT mixamorig:LeftHandPinky1
								{
									OFFSET 8.077797 -0.486984 -3.806321
									CHANNELS 6 Xposition Yposition Zposition Xrotation Yrotation Zrotation
									JOINT mixamorig:LeftHandPinky2
									{
										OFFSET 3.599998 0.000000 0.000000
										CHANNELS 6 Xposition Yposition Zposition Xrotation Yrotation Zrotation
										JOINT mixamorig:LeftHandPinky3
										{
											OFFSET 2.114197 0.000000 0.000000
											CHANNELS 6 Xposition Yposition Zposition Xrotation Yrotation Zrotation
											JOINT mixamorig:LeftHandPinky4
											{
												OFFSET 1.975700 0.000000 0.000000
												CHANNELS 6 Xposition Yposition Zposition Xrotation Yrotation Zrotation
												End Site
												{
													OFFSET 0.000000 1.975693 0.000892
												}
											}
										}
									}
								}
							}
						}
					}
				}
				JOINT mixamorig:RightShoulder
				{
					OFFSET -4.570000 10.946198 -2.628000
					CHANNELS 6 Xposition Yposition Zposition Xrotation Yrotation Zrotation
					JOINT mixamorig:RightArm
					{
						OFFSET -10.592800 -0.524796 -2.232100
						CHANNELS 6 Xposition Yposition Zposition Xrotation Yrotation Zrotation
						JOINT mixamorig:RightForeArm
						{
							OFFSET -27.841499 0.000000 0.000000
							CHANNELS 6 Xposition Yposition Zposition Xrotation Yrotation Zrotation
							JOINT mixamorig:RightHand
							{
								OFFSET -28.328800 0.000000 0.000000
								CHANNELS 6 Xposition Yposition Zposition Xrotation Yrotation Zrotation
								JOINT mixamorig:RightHandPinky1
								{
									OFFSET -8.076698 -0.486725 -3.806227
									CHANNELS 6 Xposition Yposition Zposition Xrotation Yrotation Zrotation
									JOINT mixamorig:RightHandPinky2
									{
										OFFSET -3.599998 0.000000 0.000000
										CHANNELS 6 Xposition Yposition Zposition Xrotation Yrotation Zrotation
										JOINT mixamorig:RightHandPinky3
										{
											OFFSET -2.114197 0.000000 0.000000
											CHANNELS 6 Xposition Yposition Zposition Xrotation Yrotation Zrotation
											JOINT mixamorig:RightHandPinky4
											{
												OFFSET -1.975700 0.000000 0.000000
												CHANNELS 6 Xposition Yposition Zposition Xrotation Yrotation Zrotation
												End Site
												{
													OFFSET 0.000000 1.975693 0.000919
												}
											}
										}
									}
								}
								JOINT mixamorig:RightHandRing1
								{
									OFFSET -9.103600 -0.043030 -1.865120
									CHANNELS 6 Xposition Yposition Zposition Xrotation Yrotation Zrotation
									JOINT mixamorig:RightHandRing2
									{
										OFFSET -3.153999 0.000000 0.000000
										CHANNELS 6 Xposition Yposition Zposition Xrotation Yrotation Zrotation
										JOINT mixamorig:RightHandRing3
										{
											OFFSET -2.937698 0.000000 0.000000
											CHANNELS 6 Xposition Yposition Zposition Xrotation Yrotation Zrotation
											JOINT mixamorig:RightHandRing4
											{
												OFFSET -2.647499 0.000000 0.000000
												CHANNELS 6 Xposition Yposition Zposition Xrotation Yrotation Zrotation
												End Site
												{
													OFFSET 0.000000 2.647507 0.001231
												}
											}
										}
									}
								}
								JOINT mixamorig:RightHandMiddle1
								{
									OFFSET -9.532501 0.000000 0.000000
									CHANNELS 6 Xposition Yposition Zposition Xrotation Yrotation Zrotation
									JOINT mixamorig:RightHandMiddle2
									{
										OFFSET -3.698196 0.000000 0.000000
										CHANNELS 6 Xposition Yposition Zposition Xrotation Yrotation Zrotation
										JOINT mixamorig:RightHandMiddle3
										{
											OFFSET -2.950897 0.000000 0.000000
											CHANNELS 6 Xposition Yposition Zposition Xrotation Yrotation Zrotation
											JOINT mixamorig:RightHandMiddle4
											{
												OFFSET -2.833900 0.000000 0.000000
												CHANNELS 6 Xposition Yposition Zposition Xrotation Yrotation Zrotation
												End Site
												{
													OFFSET 0.000000 2.833893 0.001318
												}
											}
										}
									}
								}
								JOINT mixamorig:RightHandIndex1
								{
									OFFSET -9.108299 -0.517853 2.259859
									CHANNELS 6 Xposition Yposition Zposition Xrotation Yrotation Zrotation
									JOINT mixamorig:RightHandIndex2
									{
										OFFSET -3.676399 0.000000 0.000000
										CHANNELS 6 Xposition Yposition Zposition Xrotation Yrotation Zrotation
										JOINT mixamorig:RightHandIndex3
										{
											OFFSET -2.883102 0.000000 0.000000
											CHANNELS 6 Xposition Yposition Zposition Xrotation Yrotation Zrotation
											JOINT mixamorig:RightHandIndex4
											{
												OFFSET -2.392700 0.000000 0.000000
												CHANNELS 6 Xposition Yposition Zposition Xrotation Yrotation Zrotation
												End Site
												{
													OFFSET 0.000000 2.392700 0.001113
												}
											}
										}
									}
								}
								JOINT mixamorig:RightHandThumb1
								{
									OFFSET -2.464798 -1.573944 2.681868
									CHANNELS 6 Xposition Yposition Zposition Xrotation Yrotation Zrotation
									JOINT mixamorig:RightHandThumb2
									{
										OFFSET -3.229782 -1.864716 1.864716
										CHANNELS 6 Xposition Yposition Zposition Xrotation Yrotation Zrotation
										JOINT mixamorig:RightHandThumb3
										{
											OFFSET -2.652542 -1.531448 1.531448
											CHANNELS 6 Xposition Yposition Zposition Xrotation Yrotation Zrotation
											JOINT mixamorig:RightHandThumb4
											{
												OFFSET -1.954605 -1.128494 1.128493
												CHANNELS 6 Xposition Yposition Zposition Xrotation Yrotation Zrotation
												End Site
												{
													OFFSET 0.000412 2.523392 0.000704
												}
											}
										}
									}
								}
							}
						}
					}
				}
			}
		}
	}
	JOINT mixamorig:LeftUpLeg
	{
		OFFSET 8.207800 -6.751701 -1.599600
		CHANNELS 6 Xposition Yposition Zposition Xrotation Yrotation Zrotation
		JOINT mixamorig:LeftLeg
		{
			OFFSET 0.000000 -44.370499 0.284600
			CHANNELS 6 Xposition Yposition Zposition Xrotation Yrotation Zrotation
			JOINT mixamorig:LeftFoot
			{
				OFFSET 0.000000 -44.427898 -2.982200
				CHANNELS 6 Xposition Yposition Zposition Xrotation Yrotation Zrotation
				JOINT mixamorig:LeftToeBase
				{
					OFFSET 0.000000 -8.728700 10.710600
					CHANNELS 6 Xposition Yposition Zposition Xrotation Yrotation Zrotation
					JOINT mixamorig:LeftToe_End
					{
						OFFSET 0.000000 -0.000700 9.278099
						CHANNELS 6 Xposition Yposition Zposition Xrotation Yrotation Zrotation
						End Site
						{
							OFFSET 0.000000 9.278100 0.000000
						}
					}
				}
			}
		}
	}
	JOINT mixamorig:RightUpLeg
	{
		OFFSET -8.207800 -6.751701 -1.599600
		CHANNELS 6 Xposition Yposition Zposition Xrotation Yrotation Zrotation
		JOINT mixamorig:RightLeg
		{
			OFFSET 0.000000 -44.370499 0.286200
			CHANNELS 6 Xposition Yposition Zposition Xrotation Yrotation Zrotation
			JOINT mixamorig:RightFoot
			{
				OFFSET 0.000000 -44.427700 -2.983800
				CHANNELS 6 Xposition Yposition Zposition Xrotation Yrotation Zrotation
				JOINT mixamorig:RightToeBase
				{
					OFFSET 0.000000 -8.728700 10.710600
					CHANNELS 6 Xposition Yposition Zposition Xrotation Yrotation Zrotation
					JOINT mixamorig:RightToe_End
					{
						OFFSET 0.000000 -0.000700 9.278100
						CHANNELS 6 Xposition Yposition Zposition Xrotation Yrotation Zrotation
						End Site
						{
							OFFSET 0.000000 9.278100 0.000000
						}
					}
				}
			}
		}
	}
}
MOTION
Frames: 3
Frame Time: 0.016667
-24.636702 95.373001 21.857883 -191.810194 -194.541765 -170.250060 0.000004 10.181612 0.131502 -0.702317 14.777954 0.901935 -0.000000 10.083517 -1.000799 -0.010810 9.509596 0.148986 0.000006 9.100019 -1.373397 0.022446 9.509376 0.257186 0.000001 16.671726 -2.516204 6.589256 -5.862526 -2.791893 -0.000000 9.617908 1.685001 -12.453212 -31.295035 -1.344530 0.000003 17.815201 2.584996 0.000000 0.000001 -0.000001 3.067605 6.409500 9.283605 0.000000 0.000001 -0.000001 -3.067594 6.409500 9.283500 0.000000 0.000001 -0.000001 4.570400 10.946007 -2.628005 -0.199635 10.403177 -3.161401 10.592405 -0.524556 -2.232105 -19.913406 23.113107 -19.837958 27.841482 -0.000001 -0.000002 112.414675 -179.999991 179.999991 28.328789 0.000003 -0.000001 -6.933721 35.458189 14.578308 2.466088 -1.576221 2.681684 2.333995 -4.852042 -3.963488 3.229792 -1.864721 1.864719 13.533802 36.265883 -6.789669 2.652610 -1.531491 1.531491 18.237466 69.607639 3.188375 1.954624 -1.128492 1.128487 0.000000 0.000000 0.000002 9.109280 -0.518097 2.259860 2.878042 7.353400 -58.659679 3.676400 0.000006 0.000003 6.385716 5.826675 -95.251858 2.883114 -0.000008 -0.000007 2.817846 5.005785 -58.730529 2.392705 -0.000001 0.000007 0.000001 0.000002 -0.000005 9.533402 0.000001 -0.000003 2.878040 7.353394 -58.659679 3.698188 -0.000004 -0.000001 6.420558 5.823377 -95.595218 2.950900 -0.000001 -0.000001 1.278807 3.654827 -38.558771 2.833908 -0.000011 -0.000001 0.000002 0.000000 0.000000 9.104473 -0.043057 -1.865125 3.051708 7.454247 -60.629718 3.154018 -0.000003 -0.000009 5.249921 5.820210 -84.092838 2.937708 0.000003 0.000005 2.817849 5.005805 -58.730536 2.647506 -0.000001 -0.000007 0.000001 -0.000000 0.000000 8.077791 -0.486977 -3.806330 2.878039 7.353392 -58.659679 3.599974 0.000022 0.000009 3.100876 5.166420 -61.922235 2.114189 0.000009 -0.000000 2.817851 5.005804 -58.730543 1.975692 0.000015 -0.000009 -0.000000 -0.000000 0.000000 -4.570000 10.946188 -2.628006 0.384548 18.047072 11.253450 -10.592796 -0.524813 -2.232106 -2.693152 19.117744 54.477329 -27.841482 0.000003 -0.000001 152.239234 156.159202 -159.579406 -28.328793 0.000004 0.000001 -4.649253 -0.091605 12.002180 -8.076717 -0.486733 -3.806226 2.345521 -7.069280 66.443411 -3.599977 -0.000006 0.000002 4.077608 -4.621040 82.843440 -2.114200 -0.000005 -0.000001 2.400001 -4.074679 60.982559 -1.975699 0.000002 0.000007 0.000000 0.000001 -0.000001 -9.103580 -0.043036 -1.865124 -0.459397 -5.589599 73.199383 -3.153986 -0.000005 0.000010 4.564213 -4.656237 88.854949 -2.937691 0.000000 -0.000006 1.698916 -3.598550 50.533988 -2.647486 -0.000013 -0.000002 -0.000001 0.000000 0.000001 -9.532499 0.000002 -0.000003 -0.274302 -5.397834 69.558086 -3.698180 0.000005 0.000002 4.568772 -4.656334 88.911182 -2.950888 0.000000 -0.000007 1.690725 -3.591773 50.403132 -2.833902 -0.000031 -0.000004 -0.000001 -0.000002 -0.000002 -9.108294 -0.517851 2.259856 -0.582407 -4.466619 63.279660 -3.676395 0.000002 0.000003 3.565237 -4.527618 76.425548 -2.883091 -0.000005 -0.000009 1.178627 -3.098521 41.644432 -2.392687 -0.000013 0.000001 0.000001 0.000003 0.000001 -2.464798 -1.573947 2.681873 -3.271346 4.262300 2.745010 -3.229785 -1.864692 1.864727 12.885607 -25.212650 -0.060294 -2.652543 -1.531450 1.531451 7.487562 -26.561158 25.320047 -1.954603 -1.128523 1.128492 0.000000 0.000000 -0.000001 8.207801 -6.751704 -1.599598 -26.378576 -5.628229 -13.546264 0.000001 -44.370491 0.284603 34.690671 -10.849039 -7.531126 0.000002 -44.427898 -2.982198 14.335394 -30.471899 12.984392 -0.000001 -8.728700 10.710595 -8.304501 -0.000009 -0.000005 0.000003 -0.000700 9.278090 -0.000000 0.000001 -0.000000 -8.207798 -6.751698 -1.599599 15.826293 -16.255633 1.285344 0.000001 -44.370502 0.286197 45.240649 -10.096755 -5.960975 0.000000 -44.427700 -2.983801 2.235323 0.912059 3.213519 0.000002 -8.728700 10.710598 -22.002814 -1.519808 3.777081 -0.000002 -0.000701 9.278101 0.000000 0.000000 -0.000000 
-24.924137 94.618301 21.222378 -192.135981 -196.052425 -170.397715 -0.000000 10.181595 0.131497 -0.695270 14.999449 0.437479 -0.000000 10.083503 -1.000796 -0.077620 9.651370 -0.068033 0.000002 9.100009 -1.373404 -0.046986 9.653773 0.029354 -0.000007 16.671711 -2.516203 6.662393 -6.066738 -2.833309 0.000007 9.617907 1.685000 -12.142240 -32.560967 -0.916008 0.000003 17.815201 2.585003 -0.000000 0.000000 0.000000 3.067599 6.409485 9.283603 -0.000000 0.000000 0.000000 -3.067599 6.409485 9.283505 -0.000000 0.000000 0.000000 4.570395 10.945979 -2.628003 -0.108478 10.881082 -4.105898 10.592402 -0.524586 -2.232110 -18.063229 23.834529 -22.275766 27.841503 0.000002 -0.000021 114.957985 -180.000005 179.999991 28.328802 -0.000004 0.000005 -6.184815 32.816607 13.189049 2.466094 -1.576221 2.681690 2.333995 -4.852042 -3.963500 3.229792 -1.864716 1.864712 13.533783 36.265900 -6.789667 2.652611 -1.531490 1.531489 18.237531 69.607646 3.188326 1.954612 -1.128491 1.128506 -0.000000 -0.000000 0.000000 9.109296 -0.518105 2.259869 2.878041 7.353389 -58.659679 3.676408 -0.000008 0.000003 6.385706 5.826673 -95.251885 2.883106 -0.000000 0.000006 2.817845 5.005797 -58.730529 2.392688 -0.000016 -0.000007 0.000001 -0.000001 0.000002 9.533400 0.000008 0.000001 2.878040 7.353385 -58.659679 3.698200 -0.000002 0.000010 6.420557 5.823379 -95.595252 2.950893 -0.000004 -0.000001 1.278809 3.654821 -38.558764 2.833900 -0.000001 0.000005 -0.000000 0.000000 0.000000 9.104485 -0.043057 -1.865116 3.051708 7.454252 -60.629718 3.154023 -0.000003 0.000001 5.249932 5.820210 -84.092838 2.937682 0.000019 0.000010 2.817851 5.005800 -58.730529 2.647490 0.000003 -0.000004 0.000003 -0.000001 0.000001 8.077785 -0.486969 -3.806313 2.878038 7.353382 -58.659686 3.599983 0.000005 -0.000000 3.100869 5.166418 -61.922249 2.114189 0.000017 0.000000 2.817851 5.005803 -58.730563 1.975702 0.000001 0.000006 0.000002 -0.000002 -0.000000 -4.570002 10.946194 -2.628004 0.407639 17.800989 11.099327 -10.592797 -0.524799 -2.232098 -2.214594 18.429973 55.559105 -27.841505 -0.000004 0.000000 152.050352 157.617967 -159.825183 -28.328796 0.000004 -0.000004 -4.661857 -0.036893 12.329765 -8.076708 -0.486727 -3.806220 2.345515 -7.069280 66.443418 -3.599992 -0.000009 -0.000003 4.077608 -4.621026 82.843446 -2.114182 0.000002 -0.000000 2.400000 -4.074672 60.982552 -1.975710 0.000002 0.000001 -0.000000 -0.000001 0.000001 -9.103578 -0.043031 -1.865113 -0.459417 -5.589590 73.199383 -3.153980 -0.000003 -0.000005 4.564209 -4.656233 88.854935 -2.937700 0.000000 0.000001 1.698916 -3.598542 50.533988 -2.647490 -0.000000 -0.000001 0.000001 0.000000 -0.000001 -9.532482 0.000008 0.000004 -0.274318 -5.397833 69.558093 -3.698201 -0.000007 -0.000006 4.568765 -4.656327 88.911209 -2.950867 -0.000001 0.000008 1.690716 -3.591790 50.403142 -2.833890 -0.000030 -0.000016 -0.000000 -0.000000 -0.000001 -9.108295 -0.517859 2.259867 -0.582419 -4.466613 63.279667 -3.676392 -0.000021 0.000004 3.565245 -4.527633 76.425527 -2.883106 -0.000003 -0.000010 1.178649 -3.098524 41.644428 -2.392694 -0.000001 -0.000002 -0.000001 -0.000002 0.000001 -2.464800 -1.573933 2.681872 -3.271369 4.262316 2.745024 -3.229802 -1.864688 1.864724 12.885590 -25.212663 -0.060300 -2.652535 -1.531450 1.531451 7.487555 -26.561149 25.320020 -1.954613 -1.128498 1.128494 -0.000000 -0.000001 -0.000000 8.207801 -6.751706 -1.599598 -27.574374 -5.236123 -13.563716 0.000000 -44.370499 0.284596 36.868589 -10.827448 -7.470232 0.000002 -44.427898 -2.982205 14.052567 -30.238982 13.640707 -0.000001 -8.728700 10.710595 -8.470333 -0.000002 -0.000001 0.000000 -0.000700 9.278098 0.000000 -0.000002 -0.000000 -8.207800 -6.751703 -1.599600 16.329734 -15.998069 2.496981 -0.000001 -44.370514 0.286201 45.512802 -9.983723 -5.550069 0.000001 -44.427700 -2.983796 0.016131 -0.373788 4.130040 -0.000002 -8.728703 10.710593 -23.393598 -1.216107 2.823308 0.000003 -0.000701 9.278102 -0.000001 0.000000 -0.000000 
-25.223465 93.828751 20.555550 -192.364901 -197.386593 -170.568607 -0.000000 10.181601 0.131503 -0.708875 15.241953 -0.041111 0.000000 10.083516 -1.000799 -0.164483 9.805441 -0.283080 -0.000002 9.100013 -1.373402 -0.138302 9.809863 -0.196915 0.000001 16.671713 -2.516200 6.734517 -6.264836 -2.876239 0.000000 9.617883 1.684999 -11.715362 -33.756321 -0.541671 -0.000001 17.815216 2.585000 -0.000001 -0.000000 0.000000 3.067601 6.409500 9.283599 -0.000001 -0.000000 0.000000 -3.067602 6.409515 9.283501 -0.000001 -0.000000 0.000000 4.570399 10.946009 -2.628001 0.009053 11.285621 -5.171434 10.592407 -0.524600 -2.232105 -16.356626 24.466479 -24.548434 27.841505 0.000004 -0.000010 117.404914 -179.979173 179.959830 28.328781 0.000002 -0.000003 -5.693884 29.968688 12.214654 2.466085 -1.576216 2.681685 2.333994 -4.852043 -3.963508 3.229773 -1.864726 1.864717 13.533806 36.265883 -6.789687 2.652597 -1.531492 1.531493 18.237519 69.607653 3.188328 1.954604 -1.128489 1.128491 0.000001 -0.000001 0.000004 9.109273 -0.518105 2.259869 2.878041 7.353392 -58.659679 3.676396 -0.000004 0.000004 6.385714 5.826676 -95.251872 2.883106 0.000008 0.000000 2.817851 5.005796 -58.730536 2.392695 -0.000015 0.000003 -0.000001 0.000001 -0.000001 9.533388 0.000008 -0.000003 2.878040 7.353388 -58.659679 3.698173 0.000004 -0.000002 6.420561 5.823382 -95.595252 2.950907 0.000003 0.000001 1.278804 3.654830 -38.558744 2.833895 0.000001 0.000000 0.000001 -0.000000 -0.000001 9.104481 -0.043058 -1.865122 3.051706 7.454248 -60.629725 3.154013 -0.000002 0.000000 5.249924 5.820213 -84.092804 2.937697 -0.000011 -0.000008 2.817850 5.005803 -58.730543 2.647495 -0.000011 -0.000004 0.000003 -0.000000 -0.000001 8.077785 -0.486984 -3.806326 2.878039 7.353387 -58.659679 3.599979 0.000013 -0.000007 3.100871 5.166418 -61.922249 2.114189 -0.000006 -0.000007 2.817856 5.005803 -58.730543 1.975700 0.000001 0.000001 0.000000 0.000001 0.000000 -4.570001 10.946172 -2.628005 0.430348 17.549054 10.943306 -10.592804 -0.524792 -2.232102 -1.966264 17.762897 56.804518 -27.841499 0.000005 -0.000004 151.706725 159.061432 -160.056140 -28.328800 -0.000009 -0.000002 -4.669271 -0.017324 12.580114 -8.076711 -0.486725 -3.806227 2.345504 -7.069274 66.443418 -3.600009 -0.000006 -0.000001 4.077605 -4.621039 82.843433 -2.114174 -0.000011 -0.000004 2.400010 -4.074674 60.982552 -1.975712 -0.000003 0.000008 0.000001 0.000002 -0.000002 -9.103622 -0.043030 -1.865122 -0.459412 -5.589601 73.199397 -3.153969 -0.000000 -0.000003 4.564209 -4.656236 88.854949 -2.937691 0.000015 0.000008 1.698911 -3.598526 50.534002 -2.647492 0.000001 -0.000006 0.000000 0.000003 0.000000 -9.532513 0.000004 -0.000002 -0.274318 -5.397831 69.558100 -3.698199 0.000016 -0.000006 4.568782 -4.656341 88.911175 -2.950879 -0.000015 0.000006 1.690723 -3.591782 50.403156 -2.833896 -0.000032 -0.000006 -0.000000 -0.000002 0.000001 -9.108306 -0.517852 2.259856 -0.582420 -4.466624 63.279681 -3.676382 -0.000006 0.000002 3.565233 -4.527619 76.425534 -2.883107 -0.000003 0.000008 1.178644 -3.098518 41.644445 -2.392694 0.000001 0.000003 0.000000 -0.000001 0.000000 -2.464809 -1.573946 2.681864 -3.271368 4.262310 2.745021 -3.229781 -1.864695 1.864733 12.885604 -25.212658 -0.060292 -2.652531 -1.531453 1.531452 7.487570 -26.561173 25.320046 -1.954606 -1.128509 1.128494 0.000000 0.000000 0.000000 8.207800 -6.751702 -1.599594 -28.905784 -4.920898 -13.594262 0.000001 -44.370499 0.284592 38.979234 -10.789584 -7.345804 0.000002 -44.427891 -2.982200 13.625874 -30.026601 13.942136 -0.000005 -8.728701 10.710602 -8.604618 -0.000014 0.000000 -0.000003 -0.000700 9.278095 -0.000000 0.000001 -0.000000 -8.207799 -6.751705 -1.599595 16.705499 -15.785025 3.662936 0.000001 -44.370491 0.286202 45.808614 -9.726143 -5.118189 -0.000000 -44.427696 -2.983797 -2.466334 -2.120550 4.812975 -0.000004 -8.728701 10.710595 -24.374350 -1.031649 2.285436 0.000000 -0.000699 9.278101 0.000001 0.000000 0.000000 
